<?xml version="1.0" standalone="no"?>
<!DOCTYPE svg PUBLIC "-//W3C//DTD SVG 20010904//EN"
 "http://www.w3.org/TR/2001/REC-SVG-20010904/DTD/svg10.dtd">
<svg version="1.0" xmlns="http://www.w3.org/2000/svg"
 width="1024.000000pt" height="1024.000000pt" viewBox="0 0 1024.000000 1024.000000"
 preserveAspectRatio="xMidYMid meet">
<metadata>
Created by potrace 1.11, written by Peter Selinger 2001-2013
</metadata>
<g transform="translate(0.000000,1024.000000) scale(0.100000,-0.100000)"
fill="#000000" stroke="none">
<path d="M230 10231 c-83 -26 -150 -82 -191 -161 l-24 -45 0 -4905 0 -4905 27
-50 c31 -60 77 -104 138 -136 l45 -24 4895 0 4895 0 50 27 c60 31 104 77 136
138 l24 45 0 4905 0 4905 -24 45 c-32 61 -76 107 -136 138 l-50 27 -4880 2
c-2684 1 -4891 -2 -4905 -6z m7950 -1991 l0 -520 -3060 0 -3060 0 0 520 0 520
3060 0 3060 0 0 -520z m-4485 -1127 c9 -32 21 -64 27 -70 6 -7 21 -50 34 -95
13 -46 29 -84 34 -86 6 -2 10 -9 10 -15 0 -16 53 -181 60 -187 7 -7 60 -171
60 -187 0 -7 3 -13 8 -13 4 0 18 -35 31 -77 13 -43 29 -87 36 -98 7 -11 22
-54 34 -95 11 -41 25 -76 31 -78 6 -2 7 -8 4 -13 -3 -6 -2 -15 4 -22 5 -7 20
-46 33 -87 13 -41 27 -77 31 -78 5 -2 5 -8 2 -14 -4 -6 -2 -13 3 -17 9 -6 53
-137 53 -159 0 -7 4 -12 10 -12 5 0 7 -7 4 -15 -4 -8 -2 -15 4 -15 5 0 17 -28
27 -62 9 -35 26 -81 36 -103 10 -22 28 -71 40 -110 11 -38 29 -88 40 -111 10
-22 26 -68 35 -102 10 -34 21 -62 26 -62 5 0 6 -4 3 -10 -3 -5 1 -20 8 -32 8
-13 23 -53 33 -90 10 -38 22 -68 27 -68 4 0 5 -5 2 -10 -3 -5 -2 -10 3 -10 4
0 14 -24 22 -52 7 -29 20 -69 28 -88 9 -19 16 -37 17 -40 1 -3 4 -12 8 -20 3
-8 15 -46 28 -85 12 -38 26 -76 32 -82 5 -7 7 -13 3 -13 -4 0 0 -10 7 -22 8
-13 22 -52 32 -88 9 -36 22 -71 27 -77 6 -7 21 -50 34 -95 13 -45 29 -85 36
-89 7 -5 9 -11 5 -15 -4 -4 -3 -12 2 -18 4 -6 19 -45 32 -86 13 -41 26 -77 29
-80 7 -6 60 -171 60 -187 0 -6 4 -13 10 -15 5 -1 21 -40 34 -86 13 -45 28 -88
33 -95 6 -6 22 -52 38 -102 15 -49 30 -92 34 -95 4 -3 20 -48 36 -100 15 -52
31 -97 35 -100 3 -3 14 -31 24 -62 10 -32 22 -58 27 -58 4 0 13 19 20 43 6 23
14 47 19 52 4 6 20 53 35 105 15 52 31 100 35 105 5 6 18 42 30 80 26 83 27
87 30 100 1 6 5 15 10 20 4 6 20 50 34 99 14 50 30 92 34 95 5 3 19 44 32 91
13 47 27 90 32 96 4 6 5 14 1 17 -3 4 -1 7 5 7 7 0 12 5 12 12 0 22 44 153 53
159 5 4 6 12 3 18 -4 6 -3 11 1 11 5 0 20 41 33 90 13 50 28 90 33 90 5 0 7 7
3 15 -3 8 -2 15 2 15 4 0 18 35 31 78 13 42 28 82 33 89 5 7 7 16 4 22 -3 5
-2 11 2 13 4 1 19 39 31 83 13 44 28 85 33 92 5 7 7 16 4 22 -3 5 -2 11 4 13
6 2 20 37 31 78 12 41 26 80 31 87 5 7 7 17 3 23 -3 5 -2 10 3 10 5 0 17 30
27 68 9 37 23 77 31 88 7 12 25 64 40 115 14 52 30 99 34 104 4 6 20 51 35
100 15 50 31 95 35 100 5 6 20 51 35 102 14 50 34 108 44 130 10 21 27 67 37
103 10 36 20 67 24 70 3 3 19 49 35 103 15 53 33 97 38 97 5 0 7 7 3 15 -3 8
-2 15 2 15 4 0 18 39 31 88 13 48 27 89 31 92 4 3 20 48 35 100 16 52 33 98
38 101 5 4 6 12 3 18 -4 6 -3 11 1 11 5 0 20 41 33 90 13 50 27 90 31 90 3 0
16 35 29 78 12 42 29 91 36 107 8 17 24 66 37 110 l23 80 777 3 777 2 0 -2850
0 -2850 -550 0 -550 0 0 2020 c0 1314 -3 2020 -10 2020 -5 0 -13 -12 -16 -27
-4 -16 -10 -30 -14 -33 -8 -6 -60 -169 -60 -188 0 -7 -5 -12 -11 -12 -5 0 -7
-4 -4 -10 3 -5 3 -10 -2 -10 -4 0 -17 -28 -27 -63 -10 -34 -28 -82 -39 -107
-11 -25 -28 -74 -38 -110 -11 -36 -24 -66 -29 -68 -6 -2 -10 -9 -10 -15 0 -16
-53 -181 -60 -187 -3 -3 -18 -43 -34 -90 -16 -47 -32 -89 -36 -95 -4 -5 -20
-50 -35 -100 -16 -49 -34 -99 -41 -110 -6 -11 -22 -54 -34 -95 -12 -41 -25
-77 -29 -80 -4 -3 -20 -45 -36 -95 -15 -49 -31 -92 -35 -95 -4 -3 -15 -31 -24
-63 -9 -32 -22 -70 -28 -85 -6 -15 -12 -29 -12 -32 -1 -3 -4 -9 -8 -15 -3 -5
-18 -48 -32 -95 -15 -46 -31 -89 -35 -95 -5 -5 -18 -41 -30 -80 -13 -38 -25
-77 -28 -85 -4 -8 -5 -18 -5 -22 1 -5 -2 -8 -7 -8 -4 0 -16 -28 -26 -62 -9
-35 -23 -73 -31 -86 -8 -12 -12 -27 -9 -32 3 -6 2 -10 -2 -10 -5 0 -20 -35
-32 -77 -13 -43 -27 -83 -32 -89 -5 -6 -20 -46 -34 -90 -14 -43 -28 -86 -32
-94 -3 -8 -7 -17 -8 -20 -1 -3 -8 -21 -17 -40 -8 -19 -21 -59 -28 -87 -8 -29
-18 -53 -22 -53 -5 0 -7 -4 -4 -9 4 -5 3 -11 -2 -13 -4 -1 -18 -37 -31 -78
-13 -41 -28 -80 -33 -87 -6 -7 -7 -17 -3 -23 3 -5 2 -10 -4 -10 -5 0 -17 -26
-25 -57 -9 -32 -23 -71 -31 -88 -8 -16 -26 -66 -41 -110 -14 -44 -34 -98 -43
-120 -10 -22 -26 -67 -36 -100 -11 -33 -23 -63 -28 -66 -5 -4 -6 -12 -3 -18 4
-6 3 -11 -1 -11 -5 0 -17 -28 -27 -62 -10 -35 -23 -74 -28 -88 -5 -14 -9 -27
-8 -29 1 -2 -2 -7 -8 -10 -5 -3 -19 -39 -31 -79 l-22 -72 -425 2 -426 3 -19
55 c-10 30 -26 69 -34 85 -8 17 -22 56 -31 88 -8 31 -20 57 -25 57 -6 0 -7 5
-4 10 4 6 3 16 -3 23 -5 7 -20 46 -33 87 -13 41 -27 77 -31 78 -5 2 -6 8 -2
13 3 5 1 9 -4 9 -4 0 -14 24 -22 53 -7 28 -20 68 -28 87 -9 19 -15 39 -13 44
1 5 -2 12 -7 15 -4 3 -19 40 -32 81 -12 41 -28 84 -35 95 -7 11 -23 55 -36 98
-12 42 -26 77 -31 77 -4 0 -5 6 -2 14 3 8 1 17 -5 20 -5 3 -19 40 -32 81 -12
41 -26 75 -31 75 -5 0 -6 5 -2 11 3 6 2 14 -3 18 -9 6 -53 136 -53 158 0 6 -4
13 -10 15 -5 2 -19 32 -29 68 -10 36 -25 79 -32 95 -7 17 -13 32 -14 35 -1 3
-7 16 -13 30 -6 14 -19 51 -27 83 -9 31 -21 57 -26 57 -6 0 -7 5 -4 10 4 6 3
16 -3 23 -5 7 -20 46 -33 87 -13 41 -26 77 -29 80 -4 3 -16 34 -27 70 -12 36
-27 79 -34 95 -7 17 -13 32 -13 35 -1 3 -4 10 -7 15 -3 6 -16 44 -29 85 -13
41 -29 84 -36 95 -6 11 -22 54 -34 95 -13 41 -26 77 -29 80 -4 3 -20 46 -35
95 -16 50 -32 92 -36 95 -4 3 -19 46 -35 95 -15 50 -32 95 -37 102 -5 6 -17
40 -27 75 -10 34 -28 86 -41 113 -13 28 -31 79 -41 115 -11 36 -24 67 -29 68
-6 2 -10 9 -10 15 0 16 -53 181 -60 187 -3 3 -18 43 -34 90 -16 47 -32 90 -36
95 -4 6 -18 44 -31 85 -13 41 -27 77 -31 78 -5 2 -6 8 -3 13 3 4 -1 19 -9 31
-8 13 -19 42 -26 66 -6 23 -15 42 -20 42 -7 0 -10 -736 -10 -2025 l0 -2025
-535 0 -535 0 0 2850 0 2850 779 0 780 0 16 -57z"/>
</g>
</svg>
